# xmcd CD database file
# Copyright (C) 1993-1996 Ti Kan
#
# Track frame offsets:
# 187
# 13572
# 38040
# 50062
# 68350
# 90287
#
# Disc length: 1442 seconds
#
# Revision: 1
# Processed by: cddbd v1.4b41PL1 Copyright (c) Steve Scherf et al.
# Submitted via: CDValet v3.31 - Copyright (c) 1997 Greg Leichner
#
DISCID=3b05a006
DTITLE=Lonestar - LIVE
DYEAR=1900
DGENRE=
TTITLE0=Heartbroke Every Day
TTITLE1=When Cowboys Didn't Dance
TTITLE2=You Came Waltzing In
TTITLE3=Nobody Still Loves You
TTITLE4=Danny's Song
TTITLE5=Shake That Thing
EXTD=
EXTT0=
EXTT1=
EXTT2=
EXTT3=
EXTT4=
EXTT5=
PLAYORDER=
